<svg width="37" height="37" viewBox="0 0 37 37" fill="none" xmlns="http://www.w3.org/2000/svg">
<path d="M33.2337 0C34.994 0 36.421 1.42691 36.421 3.18723V4H30.0465L30.0465 3.18723C30.0464 1.42691 31.4734 0 33.2337 0Z" fill="#009153"/>
<path d="M33.2338 0H30.0466H27.3048H7.18873H3.89344C2.13326 0 0.70752 1.42567 0.70752 3.18586V4.52382V11.5105V16.7245L0.707586 27.5C0.707586 28.6656 2.06987 29.2995 2.9615 28.5487L14.1147 21.13C15.2373 20.1847 16.8775 20.1847 18.0001 21.13L28.0001 28.5487C28.8917 29.2995 30.0466 28.6656 30.0466 27.5L30.0465 16.7245V11.5105V4.52375V3.18723C30.0465 1.42691 31.4735 0 33.2338 0Z" fill="#00C26F"/>
<path d="M10.8252 8.89062V16H9.11621L6.60156 11.5762V16H4.8877V8.89062H6.60156L9.11621 13.3145V8.89062H10.8252Z" fill="white"/>
<path d="M16.8018 14.6816V16H13.0127V14.6816H16.8018ZM13.623 8.89062V16H11.9092V8.89062H13.623ZM16.3135 11.7129V12.9873H13.0127V11.7129H16.3135ZM16.8164 8.89062V10.2139H13.0127V8.89062H16.8164Z" fill="white"/>
<path d="M19.1455 15.3555L20.5615 8.89062H21.4062L21.8652 9.44238L20.3564 16H19.4238L19.1455 15.3555ZM18.7695 8.89062L19.9658 15.4043L19.6582 16H18.5791L17.0703 8.89062H18.7695ZM22.6416 15.3701L23.8281 8.89062H25.5225L24.0137 16H22.9395L22.6416 15.3701ZM22.0166 8.89062L23.4668 15.3945L23.1738 16H22.2412L20.6982 9.43262L21.1768 8.89062H22.0166Z" fill="white"/>
</svg>
